<?xml version="1.0" encoding="UTF-8"?>
<!DOCTYPE svg PUBLIC '-//W3C//DTD SVG 1.1//EN' 'http://www.w3.org/Graphics/SVG/1.1/DTD/svg11.dtd'>
<svg width="917" height="788" xmlns="http://www.w3.org/2000/svg">
 <switch>
  <g>
   <path d="m769.83 295.77c11.46 29.79 17.68 61.77 17.683 95.059 0 34.27-6.596 67.15-18.715 97.691l-150.48-102.74 151.51-90.012z" fill="silver"/>
   <path d="m618.32 385.77-475.12 42.941c-1.794-12.4-2.723-25.04-2.7231-37.882 0-12.84.9292-25.48 2.7231-37.881z" fill="silver"/>
   <g fill="none" stroke="#000">
    <path d="m618.32 385.78 151.51-90.01"/>
    <path d="m768.8 488.52-150.48-102.74"/>
    <path d="m143.19 352.95c-1.794 12.4-2.723 25.04-2.7231 37.881 0 12.84.9292 25.48 2.7231 37.882 20.65 142.7 156.4 252.9 320.8 252.95 140.5 0 260.2-80.56 304.81-193.14 12.12-30.54 18.71-63.42 18.715-97.691 0-33.29-6.222-65.27-17.683-95.059-43.82-113.9-164.2-195.8-305.84-195.77-164.4 0-300.1 110.2-320.8 252.95z"/>
    <path d="m618.32 385.77-475.13-32.82"/>
    <path d="m143.19 428.71 475.13-42.94"/>
   </g>
   <g font-family="ArialMT" font-size="30.98">
    <text transform="translate(108.89 615.18)">pianeta</text>
    <text transform="translate(533.35 336.96)">sole</text>
    <text transform="translate(117.6 349.97)" letter-spacing="-1">A</text>
    <text transform="translate(117.6 453.26)">B</text>
    <text transform="translate(781.01 505.48)">C</text>
    <text transform="translate(777.31 289.17)">D</text>
   </g>
   <circle cx="280.17" cy="630.16" r="20.21" fill="#29abe2"/>
   <g fill="none">
    <path d="m768.8 488.52-150.49-102.74"/>
    <path d="m769.83 295.77-151.52 90.01"/>
    <path d="m768.8 488.52-150.49-102.74"/>
    <path d="m618.31 385.78 151.52-90.01"/>
    <g stroke="#000" stroke-width="2">
     <path d="m216.92 625c0 22.52 52.37 56.51 86.981 56.514"/>
     <path d="m304.15 682.7-6.83-13.37"/>
     <path d="m304.95 681.52-13.54 8.01"/>
    </g>
   </g>
   <path d="m618.32 385.78-337.13 243.52" stroke="#000" stroke-width="2"/>
   <circle cx="618.31" cy="385.78" r="42.2" fill="#fcee21" stroke="#fcee21"/>
   <text transform="translate(421.67 543.67)" font-family="ArialMT" font-size="30.98">raggio</text>
   <text x="421.67" y="573.67" font-family="ArialMT" font-size="30.98">vettore</text>
   <path d="m282.02 629.04c.418-2.464.8364-4.928 1.2544-7.3916.2041-1.201-1.52-.4199-1.667.4473-.4185 2.464-.8369 4.928-1.2544 7.3916-.2041 1.201 1.52.4199 1.667-.4473z"/>
   <path d="m280.71 630.12c2.464.418 4.928.8369 7.3926 1.2549.8779.1494 1.914-1.554.9541-1.7168-2.464-.418-4.928-.8369-7.3926-1.2549-.8779-.1494-1.914 1.554-.9541 1.7168z"/>
  </g>
 </switch>
</svg>
